# xmcd
#
# Track frame offsets:
#	150
#	18928
#	30322
#	41287
#	56106
#	66240
#	83680
#	95917
#	107705
#	124793
#	142758
#	154230
#	169247
#	180494
#	192646
#	206983
#
# Disc length: 3030 seconds
#
# Revision: 2
# Processed by: cddbd v1.5.2PL0 Copyright (c) Steve Scherf et al.
# Submitted via: EasyCDDAExtractor 12.0.1.1
#
DISCID=dc0bd410
DTITLE=Heidi Hauge - Country Dance
DYEAR=2003
DGENRE=Country
TTITLE0=Save The Last Dance For Me
TTITLE1=Diggy Liggy Lo
TTITLE2=Lead Me On
TTITLE3=A Good Year For The Roses
TTITLE4=I Really Never Knew You
TTITLE5=Seven Spanish Angels
TTITLE6=When The Rodeo Is Over
TTITLE7=As Soon As I Hang Up The Phone
TTITLE8=Dancing The Night Away
TTITLE9=All Those Years
TTITLE10=It's A Cowboy Lovin' Night
TTITLE11=Harper Valley PTA
TTITLE12=All That's Keeping Me Alive
TTITLE13=He Thinks I Still Care
TTITLE14=Coat Of Many Colour
TTITLE15=Skaidi
EXTD=
EXTT0=
EXTT1=
EXTT2=
EXTT3=
EXTT4=
EXTT5=
EXTT6=
EXTT7=
EXTT8=
EXTT9=
EXTT10=
EXTT11=
EXTT12=
EXTT13=
EXTT14=
EXTT15=
PLAYORDER=
